<?xml version="1.0" encoding="UTF-8" standalone="no"?>
<!-- Created with Inkscape (http://www.inkscape.org/) -->

<svg
   width="502.01016"
   height="502.01172"
   viewBox="0 0 502.01016 502.01172"
   version="1.1"
   id="SVGRoot"
   sodipodi:docname="raw_logo.svg"
   inkscape:version="1.2.2 (b0a8486541, 2022-12-01)"
   xml:space="preserve"
   xmlns:inkscape="http://www.inkscape.org/namespaces/inkscape"
   xmlns:sodipodi="http://sodipodi.sourceforge.net/DTD/sodipodi-0.dtd"
   xmlns:xlink="http://www.w3.org/1999/xlink"
   xmlns="http://www.w3.org/2000/svg"
   xmlns:svg="http://www.w3.org/2000/svg"><sodipodi:namedview
     id="namedview137"
     pagecolor="#505050"
     bordercolor="#eeeeee"
     borderopacity="1"
     inkscape:showpageshadow="0"
     inkscape:pageopacity="0"
     inkscape:pagecheckerboard="0"
     inkscape:deskcolor="#505050"
     inkscape:document-units="px"
     showgrid="true"
     inkscape:zoom="0.2605745"
     inkscape:cx="-425.98183"
     inkscape:cy="955.58086"
     inkscape:window-width="1366"
     inkscape:window-height="717"
     inkscape:window-x="0"
     inkscape:window-y="0"
     inkscape:window-maximized="1"
     inkscape:current-layer="g3406" /><defs
     id="defs132"><linearGradient
       inkscape:collect="always"
       id="linearGradient1651"><stop
         style="stop-color:#6a17be;stop-opacity:1;"
         offset="0"
         id="stop1647" /><stop
         style="stop-color:#6a4491;stop-opacity:0.67823851;"
         offset="1"
         id="stop1649" /></linearGradient><filter
       inkscape:collect="always"
       style="color-interpolation-filters:sRGB"
       id="filter2654"
       x="-0.070933588"
       y="-0.070936419"
       width="1.1418647"
       height="1.1418682"><feGaussianBlur
         inkscape:collect="always"
         stdDeviation="11.030471"
         id="feGaussianBlur2656" /></filter><linearGradient
       inkscape:collect="always"
       xlink:href="#linearGradient1651"
       id="linearGradient1653"
       x1="23.999992"
       y1="132"
       x2="232"
       y2="132"
       gradientUnits="userSpaceOnUse" /><linearGradient
       inkscape:collect="always"
       xlink:href="#linearGradient1651"
       id="linearGradient1655"
       gradientUnits="userSpaceOnUse"
       x1="23.999992"
       y1="132"
       x2="232"
       y2="132" /><linearGradient
       inkscape:collect="always"
       xlink:href="#linearGradient1651"
       id="linearGradient1657"
       gradientUnits="userSpaceOnUse"
       x1="23.999992"
       y1="132"
       x2="232"
       y2="132" /><linearGradient
       inkscape:collect="always"
       xlink:href="#linearGradient1651"
       id="linearGradient1659"
       gradientUnits="userSpaceOnUse"
       x1="23.999992"
       y1="132"
       x2="232"
       y2="132" /></defs><g
     inkscape:groupmode="layer"
     id="layer2"
     inkscape:label="Logo"
     transform="matrix(0.85867321,0,0,0.85867321,27.995926,22.525461)"
     inkscape:export-filename="logo.png"
     inkscape:export-xdpi="96"
     inkscape:export-ydpi="96"><rect
       style="display:none;fill:#111111;fill-opacity:1;stroke:#0f0f0f;stroke-width:3.73128;stroke-linejoin:round;stroke-opacity:1"
       id="rect2611"
       width="596.26874"
       height="596.26874"
       x="-38.420082"
       y="-32.047798"
       inkscape:label="bgb"
       sodipodi:insensitive="true" /><path
       style="display:inline;opacity:0.130236;fill:#222222;fill-opacity:1;stroke:#ffffff;stroke-width:19.6872;stroke-linejoin:round;stroke-opacity:1;filter:url(#filter2654)"
       id="path2360"
       sodipodi:type="arc"
       sodipodi:cx="259.71429"
       sodipodi:cy="266.08658"
       sodipodi:rx="256"
       sodipodi:ry="256"
       sodipodi:start="0"
       sodipodi:end="6.2358949"
       sodipodi:open="true"
       sodipodi:arc-type="arc"
       d="M 515.71429,266.08658 A 256,256 0 0 1 262.74081,522.06869 256,256 0 0 1 3.7858553,272.13919 256,256 0 0 1 250.63644,10.247581 256,256 0 0 1 515.42809,253.98475"
       inkscape:label="r"
       sodipodi:insensitive="true" /><text
       xml:space="preserve"
       style="font-size:26.6667px;font-family:Minercraftory;-inkscape-font-specification:Minercraftory;text-align:center;text-anchor:middle;fill:#888888;fill-opacity:1;stroke:none;stroke-width:7.26803;stroke-linejoin:round;stroke-opacity:1"
       x="259.71429"
       y="449.70947"
       id="text1200"
       inkscape:label="whackdevelopment.com"
       sodipodi:insensitive="true"><tspan
         sodipodi:role="line"
         id="tspan1198"
         x="259.71429"
         y="449.70947"
         style="font-size:26.6667px;fill:#888888;fill-opacity:1;stroke:none">whackdevelopment.com</tspan></text><g
       inkscape:groupmode="layer"
       id="layer1"
       inkscape:label="FIST"
       transform="matrix(1.1645874,0,0,1.1645874,-38.420089,-32.047803)"
       sodipodi:insensitive="true"><g
         style="fill:url(#linearGradient1653);fill-opacity:1"
         id="g534"
         transform="matrix(1.2055102,0,0,1.2055102,101.69415,61.437826)"
         inkscape:label="filstcontainer"
         sodipodi:insensitive="true"><g
           opacity="0.2"
           id="g522"
           inkscape:label="fist"
           style="fill:url(#linearGradient1657);fill-opacity:1"
           sodipodi:insensitive="true"><path
             d="m 128,64 a 24,24 0 0 1 48,0 v 24 h 24 a 24,24 0 0 1 24,24 v 16 A 96,96 0 0 1 32,128 V 88 a 24,24 0 0 1 48,0 V 64 a 24,24 0 0 1 48,0"
             id="path520"
             inkscape:label="fistpath2"
             style="fill:url(#linearGradient1655);fill-opacity:1"
             sodipodi:insensitive="true" /></g><path
           d="M 200,80 H 184 V 64 A 31.97943,31.97943 0 0 0 128,42.86792 31.97443,31.97443 0 0 0 72.20508,60.4231 31.978,31.978 0 0 0 24,88 v 40 a 104,104 0 0 0 208,0 V 112 A 32.03635,32.03635 0 0 0 200,80 Z M 152,48 a 16.01833,16.01833 0 0 1 16,16 V 80 H 136 V 64 A 16.01833,16.01833 0 0 1 152,48 Z M 88,64 a 16,16 0 0 1 32,0 v 40 a 16,16 0 0 1 -32,0 z M 40,88 a 16,16 0 0 1 32,0 v 16 a 16,16 0 0 1 -32,0 z m 176,40 A 88.00045,88.00045 0 0 1 40.0791,131.751 31.94065,31.94065 0 0 0 80,125.13208 31.92587,31.92587 0 0 0 124.58057,128.47803 32.23527,32.23527 0 0 0 136.375,139.91943 47.906,47.906 0 0 0 120,176 a 8,8 0 0 0 16,0 32.03635,32.03635 0 0 1 32,-32 8,8 0 0 0 0,-16 H 152 A 16.01833,16.01833 0 0 1 136,112 V 96 h 64 a 16.01833,16.01833 0 0 1 16,16 z"
           id="path524"
           inkscape:label="fistpath"
           style="fill:url(#linearGradient1659);fill-opacity:1"
           sodipodi:insensitive="true" /></g></g><g
       inkscape:groupmode="layer"
       id="layer3"
       inkscape:label="WD"
       sodipodi:insensitive="true"
       transform="translate(3.7142859,10.086572)"
       style="display:none"><text
         xml:space="preserve"
         style="font-size:266.667px;font-family:Minercraftory;-inkscape-font-specification:Minercraftory;text-align:center;text-anchor:middle;fill:#6a4491;stroke:#0f0f0f;stroke-width:7.26803;stroke-linejoin:round;stroke-opacity:1"
         x="390.05902"
         y="330.38986"
         id="text1144"
         inkscape:label="text-d"
         transform="translate(-3.7142859,-10.086572)"
         sodipodi:insensitive="true"><tspan
           sodipodi:role="line"
           id="tspan1142"
           x="390.05902"
           y="330.38986">D</tspan></text><text
         xml:space="preserve"
         style="font-size:266.667px;font-family:Minercraftory;-inkscape-font-specification:Minercraftory;text-align:center;text-anchor:middle;fill:#6a4491;stroke:#0f0f0f;stroke-width:7.26803;stroke-linejoin:round;stroke-opacity:1"
         x="168.4321"
         y="330.38986"
         id="text371"
         inkscape:label="text-w"
         transform="translate(-3.7142859,-10.086572)"
         sodipodi:insensitive="true"><tspan
           sodipodi:role="line"
           id="tspan369"
           x="168.4321"
           y="330.38986"
           style="font-size:266.667px;stroke:#0f0f0f;stroke-opacity:1">W</tspan></text></g></g></svg>
